<svg id="visual" viewBox="0 0 900 600" width="900" height="600" xmlns="http://www.w3.org/2000/svg" xmlns:xlink="http://www.w3.org/1999/xlink" version="1.1"><rect x="0" y="0" width="900" height="600" fill="#FFFFFF"></rect><defs><linearGradient id="grad1_0" x1="33.3%" y1="100%" x2="100%" y2="0%"><stop offset="20%" stop-color="#ffffff" stop-opacity="1"></stop><stop offset="80%" stop-color="#ffffff" stop-opacity="1"></stop></linearGradient></defs><defs><linearGradient id="grad2_0" x1="0%" y1="100%" x2="66.7%" y2="0%"><stop offset="20%" stop-color="#ffffff" stop-opacity="1"></stop><stop offset="80%" stop-color="#ffffff" stop-opacity="1"></stop></linearGradient></defs><g transform="translate(900, 600)"><path d="M-216.3 0C-195.9 -18 -175.5 -36.1 -164.5 -53.5C-153.5 -70.8 -151.9 -87.5 -147.2 -107C-142.5 -126.5 -134.7 -148.7 -121.1 -166.7C-107.4 -184.6 -88 -198.2 -66.9 -205.7C-45.7 -213.3 -22.9 -214.8 0 -216.3L0 0Z" fill="#009473"></path></g><g transform="translate(0, 0)"><path d="M216.3 0C218.1 24.9 219.9 49.7 205.7 66.9C191.6 84 161.4 93.3 141.6 102.9C121.8 112.4 112.4 122.1 102.9 141.6C93.3 161.1 83.6 190.4 66.4 204.5C49.3 218.6 24.6 217.5 0 216.3L0 0Z" fill="#009473"></path></g></svg>