<svg id="visual" viewBox="0 0 900 600" width="900" height="600" xmlns="http://www.w3.org/2000/svg" xmlns:xlink="http://www.w3.org/1999/xlink" version="1.1"><rect x="0" y="0" width="900" height="600" fill="#FFFFFF"></rect><defs><linearGradient id="grad1_0" x1="33.3%" y1="0%" x2="100%" y2="100%"><stop offset="20%" stop-color="#ffffff" stop-opacity="1"></stop><stop offset="80%" stop-color="#ffffff" stop-opacity="1"></stop></linearGradient></defs><defs><linearGradient id="grad2_0" x1="0%" y1="0%" x2="66.7%" y2="100%"><stop offset="20%" stop-color="#ffffff" stop-opacity="1"></stop><stop offset="80%" stop-color="#ffffff" stop-opacity="1"></stop></linearGradient></defs><g transform="translate(900, 0)"><path d="M0 216.3C-18 195.9 -36.1 175.5 -53.5 164.5C-70.8 153.5 -87.5 151.9 -107 147.2C-126.5 142.5 -148.7 134.7 -166.7 121.1C-184.6 107.4 -198.2 88 -205.7 66.9C-213.3 45.7 -214.8 22.9 -216.3 0L0 0Z" fill="#009473"></path></g><g transform="translate(0, 600)"><path d="M0 -216.3C24.9 -218.1 49.7 -219.9 66.9 -205.7C84 -191.6 93.3 -161.4 102.9 -141.6C112.4 -121.8 122.1 -112.4 141.6 -102.9C161.1 -93.3 190.4 -83.6 204.5 -66.4C218.6 -49.3 217.5 -24.6 216.3 0L0 0Z" fill="#009473"></path></g></svg>